<svg width="286" height="133" viewBox="0 0 286 133" fill="none" xmlns="http://www.w3.org/2000/svg">
<path d="M146.967 132.463L111.9 0H140.633L161.562 94.918H162.113L186.531 0H210.857L235.275 94.918H235.826L256.848 0H285.58L250.422 132.463H223.342L199.016 43.6953H198.465L174.047 132.463H146.967Z" fill="#1C1C1E"/>
<path d="M0 132.463V0H54.7109C84.4531 0 102.078 15.7891 102.078 42.4102V42.5938C102.078 60.0352 92.8066 74.5391 78.1191 80.3223L106.025 132.463H74.6309L49.9375 84.4531H27.7227V132.463H0ZM27.7227 63.4316H51.6816C65.4512 63.4316 73.7129 55.6289 73.7129 42.5938V42.4102C73.7129 29.7422 64.9922 21.6641 51.3145 21.6641H27.7227V63.4316Z" fill="#1C1C1E"/>
</svg>
